<svg height="368pt" viewBox="0 0 368 368" width="368pt" xmlns="http://www.w3.org/2000/svg"><path d="m360 16c4.414062 0 8-3.585938 8-8s-3.585938-8-8-8h-320c-22.054688 0-40 17.945312-40 40v288c0 22.054688 17.945312 40 40 40h320c4.414062 0 8-3.574219 8-8v-288c0-4.414062-3.585938-8-8-8-13.230469 0-24-10.769531-24-24s10.769531-24 24-24zm-320 0h288.015625c-5.023437 6.6875-8.015625 15-8.015625 24s2.992188 17.3125 8.015625 24h-288.015625c-13.230469 0-24-10.769531-24-24s10.769531-24 24-24zm312 240h-136c-22.054688 0-40-17.945312-40-40s17.945312-40 40-40h136zm0-176v80h-136c-30.878906 0-56 25.121094-56 56 0 30.871094 25.121094 56 56 56h136v80h-312c-13.230469 0-24-10.769531-24-24v-256.015625c6.6875 5.023437 15 8.015625 24 8.015625zm0 0"/></svg>